<svg width="25" height="25" viewBox="0 0 25 25" fill="none" xmlns="http://www.w3.org/2000/svg">
<path d="M10.6325 4.25124C11.2008 3.92489 11.8447 3.75316 12.5 3.75316C13.1553 3.75316 13.7992 3.92489 14.3675 4.25124L23.4363 9.45874C23.5315 9.51352 23.6107 9.59245 23.6658 9.68759C23.7208 9.78273 23.7498 9.8907 23.7498 10.0006C23.7498 10.1105 23.7208 10.2185 23.6658 10.3136C23.6107 10.4088 23.5315 10.4877 23.4363 10.5425L20 12.515V18.125C20.0001 18.2071 19.9841 18.2885 19.9528 18.3644C19.9215 18.4403 19.8755 18.5093 19.8175 18.5675L19.815 18.5687L19.8125 18.5725L19.8038 18.58L19.775 18.6075L19.675 18.7C19.5875 18.7762 19.4625 18.8837 19.2987 19.01C18.8498 19.3547 18.3727 19.6612 17.8725 19.9262C16.2182 20.8038 14.3726 21.2589 12.5 21.2512C10.6274 21.2589 8.78182 20.8038 7.1275 19.9262C6.62774 19.6612 6.15107 19.3547 5.7025 19.01C5.53766 18.8827 5.37834 18.7484 5.225 18.6075C5.15628 18.5469 5.10083 18.4728 5.06211 18.3897C5.02339 18.3067 5.00225 18.2166 5 18.125V12.515L2.5 11.08V16.875C2.5 17.0408 2.43415 17.1997 2.31694 17.3169C2.19973 17.4341 2.04076 17.5 1.875 17.5C1.70924 17.5 1.55027 17.4341 1.43306 17.3169C1.31585 17.1997 1.25 17.0408 1.25 16.875V9.99999C1.24992 9.88777 1.28005 9.7776 1.33724 9.68105C1.39442 9.58449 1.47655 9.50511 1.575 9.45124L10.6325 4.25124ZM14.3675 15.7487C13.7992 16.0751 13.1553 16.2468 12.5 16.2468C11.8447 16.2468 11.2008 16.0751 10.6325 15.7487L6.25 13.2325V17.8462C6.70516 18.2198 7.19632 18.5473 7.71625 18.8237C8.81625 19.4112 10.435 20 12.5 20C14.167 20.0085 15.8103 19.6048 17.2837 18.825C17.8038 18.5478 18.295 18.2195 18.75 17.845V13.2325L14.3675 15.7475V15.7487ZM13.745 5.33624C13.3661 5.11868 12.9369 5.00419 12.5 5.00419C12.0631 5.00419 11.6339 5.11868 11.255 5.33624L3.13 9.99999L11.255 14.665C11.6339 14.8826 12.0631 14.9971 12.5 14.9971C12.9369 14.9971 13.3661 14.8826 13.745 14.665L21.87 9.99999L13.745 5.33499V5.33624Z" fill="#002851"/>
</svg>
