<svg width="47" height="47" viewBox="0 0 47 47" fill="none" xmlns="http://www.w3.org/2000/svg">
<g filter="url(#filter0_d_4_720)">
<circle cx="23.5" cy="19.5" r="19.5" fill="url(#paint0_linear_4_720)"/>
</g>
<g clip-path="url(#clip0_4_720)">
<path d="M31.8125 24.25C31.8125 24.5649 31.6874 24.867 31.4647 25.0897C31.242 25.3124 30.9399 25.4375 30.625 25.4375H16.375C16.0601 25.4375 15.758 25.3124 15.5353 25.0897C15.3126 24.867 15.1875 24.5649 15.1875 24.25V17.125C15.1875 16.8101 15.3126 16.508 15.5353 16.2853C15.758 16.0626 16.0601 15.9375 16.375 15.9375H17.7667C18.7111 15.937 19.6166 15.5615 20.2842 14.8937L21.2699 13.9104C21.4919 13.6883 21.793 13.5632 22.1071 13.5625H24.8906C25.2055 13.5626 25.5075 13.6877 25.7301 13.9104L26.7134 14.8937C27.0442 15.2247 27.4371 15.4872 27.8695 15.6663C28.3018 15.8454 28.7653 15.9376 29.2332 15.9375H30.625C30.9399 15.9375 31.242 16.0626 31.4647 16.2853C31.6874 16.508 31.8125 16.8101 31.8125 17.125V24.25ZM16.375 14.75C15.7451 14.75 15.141 15.0002 14.6956 15.4456C14.2502 15.891 14 16.4951 14 17.125V24.25C14 24.8799 14.2502 25.484 14.6956 25.9294C15.141 26.3748 15.7451 26.625 16.375 26.625H30.625C31.2549 26.625 31.859 26.3748 32.3044 25.9294C32.7498 25.484 33 24.8799 33 24.25V17.125C33 16.4951 32.7498 15.891 32.3044 15.4456C31.859 15.0002 31.2549 14.75 30.625 14.75H29.2332C28.6034 14.7499 27.9994 14.4996 27.5541 14.0541L26.5709 13.0709C26.1256 12.6254 25.5216 12.3751 24.8918 12.375H22.1082C21.4784 12.3751 20.8744 12.6254 20.4291 13.0709L19.4459 14.0541C19.0006 14.4996 18.3966 14.7499 17.7667 14.75H16.375Z" fill="white"/>
<path d="M23.5 23.0625C22.7126 23.0625 21.9575 22.7497 21.4008 22.193C20.844 21.6362 20.5312 20.8811 20.5312 20.0938C20.5312 19.3064 20.844 18.5513 21.4008 17.9945C21.9575 17.4378 22.7126 17.125 23.5 17.125C24.2874 17.125 25.0425 17.4378 25.5992 17.9945C26.156 18.5513 26.4688 19.3064 26.4688 20.0938C26.4688 20.8811 26.156 21.6362 25.5992 22.193C25.0425 22.7497 24.2874 23.0625 23.5 23.0625ZM23.5 24.25C24.6023 24.25 25.6595 23.8121 26.4389 23.0327C27.2184 22.2532 27.6562 21.1961 27.6562 20.0938C27.6562 18.9914 27.2184 17.9343 26.4389 17.1548C25.6595 16.3754 24.6023 15.9375 23.5 15.9375C22.3977 15.9375 21.3405 16.3754 20.5611 17.1548C19.7816 17.9343 19.3438 18.9914 19.3438 20.0938C19.3438 21.1961 19.7816 22.2532 20.5611 23.0327C21.3405 23.8121 22.3977 24.25 23.5 24.25ZM17.5625 17.7188C17.5625 17.8762 17.4999 18.0272 17.3886 18.1386C17.2772 18.2499 17.1262 18.3125 16.9688 18.3125C16.8113 18.3125 16.6603 18.2499 16.5489 18.1386C16.4376 18.0272 16.375 17.8762 16.375 17.7188C16.375 17.5613 16.4376 17.4103 16.5489 17.2989C16.6603 17.1876 16.8113 17.125 16.9688 17.125C17.1262 17.125 17.2772 17.1876 17.3886 17.2989C17.4999 17.4103 17.5625 17.5613 17.5625 17.7188Z" fill="white"/>
</g>
<defs>
<filter id="filter0_d_4_720" x="0" y="0" width="47" height="47" filterUnits="userSpaceOnUse" color-interpolation-filters="sRGB">
<feFlood flood-opacity="0" result="BackgroundImageFix"/>
<feColorMatrix in="SourceAlpha" type="matrix" values="0 0 0 0 0 0 0 0 0 0 0 0 0 0 0 0 0 0 127 0" result="hardAlpha"/>
<feOffset dy="4"/>
<feGaussianBlur stdDeviation="2"/>
<feComposite in2="hardAlpha" operator="out"/>
<feColorMatrix type="matrix" values="0 0 0 0 0 0 0 0 0 0 0 0 0 0 0 0 0 0 0.13 0"/>
<feBlend mode="normal" in2="BackgroundImageFix" result="effect1_dropShadow_4_720"/>
<feBlend mode="normal" in="SourceGraphic" in2="effect1_dropShadow_4_720" result="shape"/>
</filter>
<linearGradient id="paint0_linear_4_720" x1="23.5" y1="0" x2="23.5" y2="39" gradientUnits="userSpaceOnUse">
<stop stop-color="#800165"/>
<stop offset="1" stop-color="#D3014E"/>
</linearGradient>
<clipPath id="clip0_4_720">
<rect width="19" height="19" fill="white" transform="translate(14 10)"/>
</clipPath>
</defs>
</svg>
